<svg width="60" height="60" viewBox="0 0 60 60" fill="none" xmlns="http://www.w3.org/2000/svg">
<g id="gridpoints">
<path id="Dot4" d="M30.8708 58.8572C30.8708 59.3832 30.4444 59.8096 29.9184 59.8096C29.3925 59.8096 28.9661 59.3832 28.9661 58.8572C28.9661 58.3312 29.3925 57.9048 29.9184 57.9048C30.4444 57.9048 30.8708 58.3312 30.8708 58.8572Z" fill="#6966FF"/>
<path id="Dot3" d="M58.8707 30.8574C58.3447 30.8574 57.9183 30.431 57.9183 29.905C57.9183 29.3791 58.3447 28.9527 58.8707 28.9527C59.3966 28.9527 59.823 29.3791 59.823 29.905C59.823 30.431 59.3966 30.8574 58.8707 30.8574Z" fill="#6966FF"/>
<path id="Dot2" d="M30.8708 0.952404C30.8708 1.47839 30.4444 1.90479 29.9184 1.90479C29.3925 1.90479 28.9661 1.47839 28.9661 0.952404C28.9661 0.426419 29.3925 2.31166e-05 29.9184 2.31626e-05C30.4444 2.32085e-05 30.8708 0.426419 30.8708 0.952404Z" fill="#6966FF"/>
<path id="Dot1" d="M0.966053 30.8574C0.440068 30.8574 0.0136719 30.431 0.013672 29.905C0.0136721 29.3791 0.440068 28.9527 0.966053 28.9527C1.49204 28.9527 1.91843 29.3791 1.91843 29.905C1.91843 30.431 1.49204 30.8574 0.966053 30.8574Z" fill="#6966FF"/>
</g>
</svg>
