<svg width="112" height="66" viewBox="0 0 112 66" fill="none" xmlns="http://www.w3.org/2000/svg">
<path d="M0 61.1448C0.311168 63.2341 2.31153 65.1011 5.31208 65.1011C9.42395 65.1011 11.0465 62.3673 11.0465 59.3667V49.6094H8.2015V50.8985C7.82365 50.165 6.82347 49.4093 5.08982 49.4093C2.08927 49.4093 0 51.8542 0 54.7437C0 57.8109 2.17818 60.0557 5.08982 60.0557C6.66789 60.0557 7.6903 59.3667 8.13482 58.6555V59.4556C8.13482 61.5671 7.09019 62.5006 5.22318 62.5006C3.82292 62.5006 2.86719 61.6338 2.66715 60.4336L0 61.1448ZM5.60103 57.5219C4.06741 57.5219 2.97832 56.4551 2.97832 54.7437C2.97832 53.0545 4.13409 51.9876 5.60103 51.9876C7.02351 51.9876 8.17927 53.0545 8.17927 54.7437C8.17927 56.4328 7.11241 57.5219 5.60103 57.5219Z" fill="#6966FF"/>
<path d="M17.0146 49.6094H14.0585V60.5447H17.0146V51.6097C17.0813 52.6322 17.9259 53.4101 18.9927 53.4101C20.104 53.4101 20.9709 52.5433 20.9709 51.4319C20.9709 50.3206 20.104 49.4538 18.9927 49.4538C17.9259 49.4538 17.0813 50.2539 17.0146 51.2986V49.6094Z" fill="#6966FF"/>
<path d="M22.0961 57.5664C22.0961 59.2778 23.5185 60.8559 25.8523 60.8559C27.4748 60.8559 28.5195 60.1002 29.0751 59.2334C29.0751 59.6557 29.1196 60.2558 29.1862 60.5447H31.8979C31.8312 60.1669 31.7645 59.3889 31.7645 58.8111V53.4323C31.7645 51.2319 30.4754 49.276 27.0081 49.276C24.0742 49.276 22.4961 51.1652 22.3183 52.8766L24.941 53.4323C25.0299 52.4766 25.7412 51.6542 27.0303 51.6542C28.275 51.6542 28.8751 52.2988 28.8751 53.0767C28.8751 53.4545 28.675 53.7657 28.0527 53.8546L25.3633 54.2547C23.5408 54.5214 22.0961 55.6105 22.0961 57.5664ZM26.4746 58.6555C25.5189 58.6555 25.0522 58.0331 25.0522 57.3886C25.0522 56.544 25.6523 56.1217 26.408 56.0105L28.8751 55.6327V56.1217C28.8751 58.0554 27.7193 58.6555 26.4746 58.6555Z" fill="#6966FF"/>
<path d="M37.6564 54.2547C37.6564 52.9878 38.4121 51.9876 39.7012 51.9876C41.1237 51.9876 41.7238 52.9433 41.7238 54.1658V60.5447H44.6799V53.6546C44.6799 51.2541 43.4352 49.3204 40.7236 49.3204C39.5456 49.3204 38.2343 49.8316 37.5675 50.9652V49.6094H34.7003V60.5447H37.6564V54.2547Z" fill="#6966FF"/>
<path d="M51.4384 46.3421H48.7712V47.8757C48.7712 48.8537 48.2378 49.6094 47.0821 49.6094H46.5264V52.2321H48.5045V57.3219C48.5045 59.4334 49.8381 60.7003 51.9718 60.7003C52.8387 60.7003 53.3721 60.5447 53.6388 60.4336V57.9887C53.4832 58.0331 53.0831 58.0776 52.7275 58.0776C51.8829 58.0776 51.4384 57.7664 51.4384 56.8107V52.2321H53.6388V49.6094H51.4384V46.3421Z" fill="#6966FF"/>
<path d="M55.2815 57.4997C55.4148 58.7444 56.5484 60.8781 59.8379 60.8781C62.705 60.8781 64.0831 59.0556 64.0831 57.2774C64.0831 55.6772 62.994 54.3658 60.838 53.9213L59.2822 53.5879C58.6821 53.4768 58.282 53.1434 58.282 52.6099C58.282 51.9876 58.9044 51.5208 59.6823 51.5208C60.9269 51.5208 61.3937 52.3432 61.4826 52.9878L63.9497 52.4321C63.8164 51.2541 62.7717 49.276 59.66 49.276C57.3041 49.276 55.5704 50.8985 55.5704 52.8544C55.5704 54.388 56.5261 55.6549 58.6376 56.1217L60.0823 56.4551C60.9269 56.6329 61.2603 57.033 61.2603 57.5219C61.2603 58.0998 60.7936 58.611 59.8156 58.611C58.5265 58.611 57.8819 57.8109 57.8153 56.9441L55.2815 57.4997Z" fill="#6966FF"/>
<path fill-rule="evenodd" clip-rule="evenodd" d="M86.221 34.2366C86.425 34.2366 86.5904 34.402 86.5904 34.606L86.5904 34.631C86.5904 34.835 86.425 35.0004 86.221 35.0004C86.017 35.0004 85.8516 34.835 85.8516 34.631L85.8516 34.606C85.8516 34.402 86.017 34.2366 86.221 34.2366ZM86.221 38.2539C86.425 38.2539 86.5904 38.4193 86.5904 38.6234L86.5904 38.6733C86.5904 38.8773 86.425 39.0427 86.221 39.0427C86.017 39.0427 85.8516 38.8773 85.8516 38.6733L85.8516 38.6234C85.8516 38.4193 86.017 38.2539 86.221 38.2539ZM86.221 42.2962C86.425 42.2962 86.5904 42.4616 86.5904 42.6656L86.5904 42.7155C86.5904 42.9196 86.425 43.085 86.221 43.085C86.017 43.085 85.8516 42.9196 85.8516 42.7155L85.8516 42.6656C85.8516 42.4616 86.017 42.2962 86.221 42.2962ZM86.221 46.3385C86.425 46.3385 86.5904 46.5039 86.5904 46.7079L86.5904 46.7578C86.5904 46.9618 86.425 47.1272 86.221 47.1272C86.017 47.1272 85.8516 46.9618 85.8516 46.7578L85.8516 46.7079C85.8516 46.5039 86.017 46.3385 86.221 46.3385ZM86.221 50.3807C86.425 50.3807 86.5904 50.5461 86.5904 50.7502L86.5904 50.7751C86.5904 50.9791 86.425 51.1445 86.221 51.1445C86.017 51.1445 85.8516 50.9791 85.8516 50.7751L85.8516 50.7502C85.8516 50.5461 86.017 50.3807 86.221 50.3807Z" fill="#55555E"/>
<path fill-rule="evenodd" clip-rule="evenodd" d="M86.221 4.20732C86.425 4.20732 86.5904 4.37272 86.5904 4.57675L86.5904 4.60013C86.5904 4.80416 86.425 4.96955 86.221 4.96955C86.017 4.96955 85.8516 4.80416 85.8516 4.60013L85.8516 4.57675C85.8516 4.37272 86.017 4.20732 86.221 4.20732ZM86.221 7.97183C86.425 7.97183 86.5904 8.13723 86.5904 8.34126L86.5904 8.38802C86.5904 8.59205 86.425 8.75745 86.221 8.75745C86.017 8.75745 85.8516 8.59205 85.8516 8.38802L85.8516 8.34126C85.8516 8.13723 86.017 7.97183 86.221 7.97183ZM86.221 11.7597C86.425 11.7597 86.5904 11.9251 86.5904 12.1292L86.5904 12.1759C86.5904 12.3799 86.425 12.5453 86.221 12.5453C86.017 12.5453 85.8516 12.3799 85.8516 12.1759L85.8516 12.1292C85.8516 11.9251 86.017 11.7597 86.221 11.7597ZM86.221 15.5476C86.425 15.5476 86.5904 15.713 86.5904 15.917L86.5904 15.9404C86.5904 16.1445 86.425 16.3099 86.221 16.3099C86.017 16.3099 85.8516 16.1445 85.8516 15.9404L85.8516 15.917C85.8516 15.713 86.017 15.5476 86.221 15.5476Z" fill="#55555E"/>
<path fill-rule="evenodd" clip-rule="evenodd" d="M111.568 25.7974C111.568 26.0015 111.403 26.1669 111.199 26.1669L111.177 26.1669C110.973 26.1669 110.807 26.0015 110.807 25.7974C110.807 25.5934 110.973 25.428 111.177 25.428L111.199 25.428C111.403 25.428 111.568 25.5934 111.568 25.7974ZM107.97 25.7974C107.97 26.0015 107.804 26.1669 107.6 26.1669L107.556 26.1669C107.352 26.1669 107.186 26.0015 107.186 25.7974C107.186 25.5934 107.352 25.428 107.556 25.428L107.6 25.428C107.804 25.428 107.97 25.5934 107.97 25.7974ZM104.349 25.7974C104.349 26.0015 104.183 26.1669 103.979 26.1669L103.935 26.1669C103.731 26.1669 103.565 26.0015 103.565 25.7974C103.565 25.5934 103.731 25.428 103.935 25.428L103.979 25.428C104.183 25.428 104.349 25.5934 104.349 25.7974ZM100.728 25.7974C100.728 26.0015 100.562 26.1669 100.358 26.1669L100.314 26.1669C100.11 26.1669 99.9443 26.0015 99.9443 25.7974C99.9443 25.5934 100.11 25.428 100.314 25.428L100.358 25.428C100.562 25.428 100.728 25.5934 100.728 25.7974ZM97.107 25.7974C97.107 26.0015 96.9416 26.1669 96.7375 26.1669L96.6928 26.1669C96.4888 26.1669 96.3234 26.0015 96.3234 25.7974C96.3234 25.5934 96.4888 25.428 96.6928 25.428L96.7375 25.428C96.9416 25.428 97.107 25.5934 97.107 25.7974ZM93.486 25.7974C93.486 26.0015 93.3206 26.1669 93.1166 26.1669L93.0942 26.1669C92.8902 26.1669 92.7248 26.0015 92.7248 25.7974C92.7248 25.5934 92.8902 25.428 93.0942 25.428L93.1166 25.428C93.3206 25.428 93.486 25.5934 93.486 25.7974Z" fill="#55555E"/>
<path fill-rule="evenodd" clip-rule="evenodd" d="M79.877 25.7974C79.877 26.0015 79.7116 26.1669 79.5075 26.1669H79.485C79.281 26.1669 79.1156 26.0015 79.1156 25.7974C79.1156 25.5934 79.281 25.428 79.485 25.428H79.5075C79.7116 25.428 79.877 25.5934 79.877 25.7974ZM76.2469 25.7974C76.2469 26.0015 76.0815 26.1669 75.8775 26.1669H75.8324C75.6284 26.1669 75.463 26.0015 75.463 25.7974C75.463 25.5934 75.6284 25.428 75.8324 25.428H75.8775C76.0815 25.428 76.2469 25.5934 76.2469 25.7974ZM72.5943 25.7974C72.5943 26.0015 72.4289 26.1669 72.2249 26.1669H72.1798C71.9758 26.1669 71.8104 26.0015 71.8104 25.7974C71.8104 25.5934 71.9758 25.428 72.1798 25.428H72.2249C72.4289 25.428 72.5943 25.5934 72.5943 25.7974Z" fill="#55555E"/>
<path fill-rule="evenodd" clip-rule="evenodd" d="M86.1983 0.451462H86.2477C86.4517 0.451657 86.617 0.617211 86.6168 0.821239C86.6166 1.02527 86.451 1.19051 86.247 1.19031H86.199C85.995 1.19051 85.8295 1.02527 85.8293 0.821239C85.8291 0.617211 85.9943 0.451657 86.1983 0.451462ZM82.7066 1.06391C82.7381 1.26549 82.6002 1.45443 82.3986 1.4859L82.3514 1.49333C82.1498 1.5252 81.9606 1.38767 81.9288 1.18615C81.8969 0.984628 82.0344 0.795425 82.2359 0.763553L82.2846 0.755902C82.4862 0.724423 82.6752 0.862321 82.7066 1.06391ZM89.7394 1.06391C89.7709 0.862322 89.9598 0.724423 90.1614 0.755902L90.2101 0.763554C90.4116 0.795425 90.5491 0.984629 90.5173 1.18615C90.4854 1.38767 90.2962 1.5252 90.0947 1.49333L90.0474 1.4859C89.8458 1.45443 89.7079 1.26549 89.7394 1.06391ZM93.5632 1.91491C93.626 1.72079 93.8343 1.61436 94.0285 1.67718L94.0752 1.69238C94.2692 1.75558 94.3753 1.96408 94.3121 2.15807C94.2488 2.35206 94.0404 2.45808 93.8464 2.39488L93.801 2.38014C93.6068 2.31731 93.5004 2.10902 93.5632 1.91491ZM78.8828 1.91491C78.9456 2.10902 78.8392 2.31731 78.6451 2.38014L78.5997 2.39488C78.4057 2.45808 78.1972 2.35206 78.134 2.15807C78.0708 1.96408 78.1768 1.75558 78.3708 1.69238L78.4176 1.67719C78.6117 1.61436 78.82 1.72079 78.8828 1.91491ZM97.2048 3.35763C97.2974 3.17583 97.5199 3.10351 97.7017 3.19611L97.7454 3.21844C97.9271 3.31139 97.9989 3.53398 97.906 3.7156C97.813 3.89723 97.5905 3.96911 97.4088 3.87616L97.3664 3.85448C97.1845 3.76188 97.1122 3.53944 97.2048 3.35763ZM75.2412 3.35763C75.3338 3.53944 75.2615 3.76188 75.0797 3.85448L75.0372 3.87616C74.8556 3.96911 74.633 3.89723 74.54 3.71561C74.4471 3.53398 74.519 3.31139 74.7006 3.21844L74.7444 3.19611C74.9262 3.10351 75.1486 3.17583 75.2412 3.35763ZM71.8715 5.35428C71.9914 5.51936 71.9548 5.75038 71.7897 5.87028L71.7511 5.89833C71.5863 6.01855 71.3552 5.98237 71.235 5.81752C71.1148 5.65267 71.1509 5.42158 71.3158 5.30136L71.3555 5.27247C71.5206 5.15257 71.7516 5.1892 71.8715 5.35428ZM100.575 5.35428C100.694 5.1892 100.925 5.15257 101.091 5.27247L101.13 5.30136C101.295 5.42158 101.331 5.65267 101.211 5.81752C101.091 5.98237 100.86 6.01855 100.695 5.89833L100.656 5.87028C100.491 5.75038 100.455 5.51936 100.575 5.35428ZM68.8546 7.85244C68.9987 7.99685 68.9985 8.23075 68.8541 8.37488L68.8204 8.40861C68.6762 8.55301 68.4423 8.55324 68.2979 8.40911C68.1535 8.26498 68.1533 8.03107 68.2974 7.88666L68.3321 7.85194C68.4765 7.70781 68.7104 7.70803 68.8546 7.85244ZM103.591 7.85244C103.736 7.70803 103.969 7.70781 104.114 7.85194L104.149 7.88666C104.293 8.03107 104.293 8.26498 104.148 8.40911C104.004 8.55324 103.77 8.55301 103.626 8.40861L103.592 8.37488C103.448 8.23075 103.447 7.99685 103.591 7.85244ZM106.183 10.7895C106.348 10.6693 106.579 10.7055 106.699 10.8703L106.728 10.91C106.848 11.0751 106.811 11.3061 106.646 11.426C106.481 11.5459 106.25 11.5093 106.13 11.3442L106.102 11.3057C105.982 11.1408 106.018 10.9097 106.183 10.7895ZM108.285 14.0946C108.467 14.0016 108.689 14.0735 108.782 14.2551L108.804 14.2989C108.897 14.4807 108.825 14.7031 108.643 14.7957C108.461 14.8883 108.239 14.816 108.146 14.6342L108.124 14.5917C108.031 14.4101 108.103 14.1875 108.285 14.0946ZM109.843 17.6885C110.036 17.6253 110.245 17.7313 110.308 17.9253L110.323 17.9721C110.386 18.1662 110.28 18.3745 110.086 18.4373C109.892 18.5002 109.683 18.3937 109.62 18.1996L109.606 18.1542C109.542 17.9602 109.649 17.7517 109.843 17.6885ZM110.814 21.4833C111.016 21.4514 111.205 21.589 111.237 21.7905L111.245 21.8392C111.276 22.0407 111.138 22.2297 110.937 22.2612C110.735 22.2926 110.546 22.1547 110.515 21.9532L110.507 21.9059C110.475 21.7044 110.613 21.5152 110.814 21.4833ZM111.179 25.3838C111.383 25.3836 111.549 25.5488 111.549 25.7529V25.8022C111.549 26.0063 111.383 26.1715 111.179 26.1713C110.975 26.1711 110.81 26.0056 110.81 25.8015V25.7536C110.81 25.5495 110.975 25.384 111.179 25.3838ZM110.937 29.2939C111.138 29.3254 111.276 29.5143 111.245 29.7159L111.237 29.7646C111.205 29.9661 111.016 30.1037 110.814 30.0718C110.613 30.0399 110.475 29.8507 110.507 29.6492L110.515 29.6019C110.546 29.4004 110.735 29.2625 110.937 29.2939ZM110.086 33.1178C110.28 33.1806 110.386 33.3889 110.323 33.583L110.308 33.6298C110.245 33.8238 110.036 33.9298 109.843 33.8666C109.649 33.8034 109.542 33.5949 109.606 33.4009L109.62 33.3555C109.683 33.1614 109.892 33.0549 110.086 33.1178ZM108.643 36.7594C108.825 36.852 108.897 37.0744 108.804 37.2562L108.782 37.3C108.689 37.4816 108.467 37.5535 108.285 37.4605C108.103 37.3676 108.031 37.145 108.124 36.9634L108.146 36.9209C108.239 36.7391 108.461 36.6668 108.643 36.7594ZM106.646 40.1291C106.811 40.249 106.848 40.48 106.728 40.6451L106.699 40.6848C106.579 40.8496 106.348 40.8858 106.183 40.7656C106.018 40.6454 105.982 40.4143 106.102 40.2494L106.13 40.2109C106.25 40.0458 106.481 40.0092 106.646 40.1291ZM68.2979 43.146C68.4423 43.0019 68.6762 43.0021 68.8204 43.1465L68.8541 43.1802C68.9985 43.3243 68.9987 43.5582 68.8546 43.7027C68.7104 43.8471 68.4765 43.8473 68.3321 43.7032L68.2974 43.6684C68.1533 43.524 68.1535 43.2901 68.2979 43.146ZM104.148 43.146C104.293 43.2901 104.293 43.524 104.149 43.6684L104.114 43.7032C103.969 43.8473 103.736 43.8471 103.591 43.7027C103.447 43.5582 103.448 43.3243 103.592 43.1802L103.626 43.1465C103.77 43.0021 104.004 43.0019 104.148 43.146ZM71.235 45.7376C71.3552 45.5727 71.5863 45.5365 71.7511 45.6568L71.7897 45.6848C71.9548 45.8047 71.9914 46.0357 71.8715 46.2008C71.7516 46.3659 71.5206 46.4025 71.3555 46.2826L71.3158 46.2537C71.1509 46.1335 71.1148 45.9024 71.235 45.7376ZM101.211 45.7376C101.331 45.9024 101.295 46.1335 101.13 46.2537L101.091 46.2826C100.925 46.4025 100.694 46.3659 100.575 46.2008C100.455 46.0357 100.491 45.8047 100.656 45.6848L100.695 45.6568C100.86 45.5365 101.091 45.5727 101.211 45.7376ZM74.54 47.8395C74.633 47.6579 74.8556 47.586 75.0372 47.6789L75.0797 47.7006C75.2615 47.7932 75.3338 48.0157 75.2412 48.1975C75.1486 48.3793 74.9262 48.4516 74.7444 48.359L74.7006 48.3367C74.519 48.2437 74.4471 48.0211 74.54 47.8395ZM97.906 47.8395C97.9989 48.0211 97.9271 48.2437 97.7454 48.3367L97.7017 48.359C97.5199 48.4516 97.2974 48.3793 97.2048 48.1975C97.1122 48.0157 97.1846 47.7932 97.3664 47.7006L97.4088 47.6789C97.5905 47.586 97.813 47.6579 97.906 47.8395ZM78.134 49.397C78.1972 49.203 78.4057 49.097 78.5997 49.1602L78.6451 49.175C78.8392 49.2378 78.9456 49.4461 78.8828 49.6402C78.82 49.8343 78.6117 49.9407 78.4176 49.8779L78.3708 49.8627C78.1768 49.7995 78.0708 49.591 78.134 49.397ZM94.3121 49.397C94.3753 49.591 94.2692 49.7995 94.0752 49.8627L94.0285 49.8779C93.8343 49.9407 93.626 49.8343 93.5632 49.6402C93.5004 49.4461 93.6068 49.2378 93.801 49.175L93.8464 49.1602C94.0404 49.097 94.2488 49.203 94.3121 49.397ZM81.9288 50.3689C81.9606 50.1674 82.1498 50.0299 82.3514 50.0618L82.3986 50.0692C82.6002 50.1007 82.7381 50.2896 82.7066 50.4912C82.6752 50.6928 82.4862 50.8307 82.2846 50.7992L82.2359 50.7915C82.0344 50.7597 81.8969 50.5705 81.9288 50.3689ZM90.5173 50.3689C90.5491 50.5705 90.4116 50.7597 90.2101 50.7915L90.1614 50.7992C89.9598 50.8307 89.7709 50.6928 89.7394 50.4912C89.7079 50.2896 89.8458 50.1007 90.0474 50.0692L90.0947 50.0618C90.2962 50.0299 90.4854 50.1674 90.5173 50.3689ZM85.8293 50.7339C85.8294 50.5298 85.995 50.3646 86.199 50.3648H86.247C86.451 50.3646 86.6166 50.5298 86.6168 50.7339C86.617 50.9379 86.4517 51.1034 86.2477 51.1036H86.1983C85.9943 51.1034 85.8291 50.9379 85.8293 50.7339Z" fill="white"/>
<path d="M87.043 50.734C87.043 51.1874 86.6754 51.555 86.222 51.555V51.555C85.7686 51.555 85.4011 51.1874 85.4011 50.734V50.734C85.4011 50.2806 85.7686 49.9131 86.222 49.9131V49.9131C86.6754 49.9131 87.043 50.2806 87.043 50.734V50.734Z" fill="#6966FF"/>
<path d="M111.178 26.5989C110.725 26.5989 110.357 26.2314 110.357 25.778V25.778C110.357 25.3246 110.725 24.957 111.178 24.957V24.957C111.632 24.957 111.999 25.3246 111.999 25.778V25.778C111.999 26.2314 111.632 26.5989 111.178 26.5989V26.5989Z" fill="#6966FF"/>
<path d="M87.043 0.820948C87.043 1.27434 86.6754 1.64189 86.222 1.64189V1.64189C85.7686 1.64189 85.4011 1.27434 85.4011 0.820948V0.820948C85.4011 0.367554 85.7686 5.09343e-06 86.222 5.13307e-06V5.13307e-06C86.6754 5.17271e-06 87.043 0.367554 87.043 0.820948V0.820948Z" fill="#6966FF"/>
<path fill-rule="evenodd" clip-rule="evenodd" d="M93.3953 10.389H100.204L78.2832 41.0898H71.5879L93.3953 10.389ZM85.3971 19.4355L78.9807 10.389H72.1459L82.0494 24.37L85.3971 19.4355ZM83.7186 19.4529L82.025 21.9494L74.813 11.7681H78.2681L83.7186 19.4529ZM74.2593 39.7106H77.5733L97.5243 11.7681H94.1074L74.2593 39.7106Z" fill="white"/>
<path fill-rule="evenodd" clip-rule="evenodd" d="M94.8183 39.6845C94.8645 39.7487 94.9389 39.7868 95.018 39.7868H98.203L90.636 29.0417C90.5378 28.9021 90.3309 28.9024 90.233 29.0422L88.8152 31.0677C88.7551 31.1534 88.7559 31.2678 88.8171 31.3528L94.8183 39.6845ZM87.0234 31.2223L94.1857 41.1659H100.861L90.4307 26.3548L87.0234 31.2223Z" fill="url(#paint0_linear_71_766)"/>
<path fill-rule="evenodd" clip-rule="evenodd" d="M23.4096 10.389H17.5577V19.5241C15.8676 18.6199 13.9273 18.1058 11.8639 18.1058C5.31271 18.1058 0.00195312 23.2883 0.00195312 29.6811C0.00195312 36.074 5.31271 41.2564 11.8639 41.2564C13.9273 41.2564 15.8676 40.7423 17.5577 39.8382V40.9808H23.4096V10.389ZM18.5196 29.6202C18.5196 33.2409 15.5118 36.1761 11.8014 36.1761C8.09099 36.1761 5.08313 33.2409 5.08313 29.6202C5.08313 25.9994 8.09099 23.0642 11.8014 23.0642C15.5118 23.0642 18.5196 25.9994 18.5196 29.6202ZM47.1208 10.389L25.3603 40.9809H32.1822L53.9217 10.389H47.1208ZM64.0944 10.389H69.9463V40.9808H64.0944V39.8382C62.4043 40.7423 60.464 41.2564 58.4006 41.2564C51.8494 41.2564 46.5386 36.074 46.5386 29.6811C46.5386 23.2883 51.8494 18.1058 58.4006 18.1058C60.464 18.1058 62.4043 18.6199 64.0944 19.5241V10.389ZM58.3381 36.1761C62.0485 36.1761 65.0563 33.2409 65.0563 29.6202C65.0563 25.9994 62.0485 23.0642 58.3381 23.0642C54.6277 23.0642 51.6198 25.9994 51.6198 29.6202C51.6198 33.2409 54.6277 36.1761 58.3381 36.1761ZM39.0152 19.6765L32.1879 10.389H25.082L35.2532 24.8666L39.0152 19.6765Z" fill="white"/>
<defs>
<linearGradient id="paint0_linear_71_766" x1="95.6897" y1="38.8347" x2="84.6571" y2="23.6758" gradientUnits="userSpaceOnUse">
<stop stop-color="#6966FF"/>
<stop offset="1" stop-color="#6966FF" stop-opacity="0.36"/>
</linearGradient>
</defs>
</svg>
