<svg width="60" height="60" viewBox="0 0 60 60" fill="none" xmlns="http://www.w3.org/2000/svg">
<path fill-rule="evenodd" clip-rule="evenodd" d="M38.2376 12.0527H46.136L20.7059 47.669H12.9386L38.2376 12.0527ZM28.9588 22.5476L21.5151 12.0527H13.586L25.0751 28.2722L28.9588 22.5476ZM27.0116 22.5679L25.0467 25.4641L16.6801 13.6527H20.6883L27.0116 22.5679ZM16.0377 46.069H19.8824L43.0276 13.6527H39.0636L16.0377 46.069Z" fill="white"/>
<path fill-rule="evenodd" clip-rule="evenodd" d="M39.9732 46.1572H43.8143L34.8016 33.3591L32.8072 36.2083L39.9732 46.1572ZM30.8449 36.2215L39.1538 47.7572H46.898L34.7977 30.5747L30.8449 36.2215Z" fill="url(#paint0_linear_63_559)"/>
<path fill-rule="evenodd" clip-rule="evenodd" d="M30.3471 5.30992C30.3471 5.07323 30.1552 4.88135 29.9185 4.88135C29.6818 4.88135 29.49 5.07323 29.49 5.30992V5.33704C29.49 5.57374 29.6818 5.76562 29.9185 5.76562C30.1552 5.76562 30.3471 5.57374 30.3471 5.33704V5.30992ZM30.3471 9.67715C30.3471 9.44046 30.1552 9.24858 29.9185 9.24858C29.6818 9.24858 29.49 9.44046 29.49 9.67715V9.7314C29.49 9.9681 29.6818 10.16 29.9185 10.16C30.1552 10.16 30.3471 9.9681 30.3471 9.7314V9.67715ZM30.3471 14.0715C30.3471 13.8348 30.1552 13.6429 29.9185 13.6429C29.6818 13.6429 29.49 13.8348 29.49 14.0715V14.1258C29.49 14.3625 29.6818 14.5543 29.9185 14.5543C30.1552 14.5543 30.3471 14.3625 30.3471 14.1258V14.0715ZM30.3471 18.4659C30.3471 18.2292 30.1552 18.0373 29.9185 18.0373C29.6818 18.0373 29.49 18.2292 29.49 18.4659V18.493C29.49 18.7297 29.6818 18.9216 29.9185 18.9216C30.1552 18.9216 30.3471 18.7297 30.3471 18.493V18.4659ZM30.3471 40.1464C30.3471 39.9097 30.1552 39.7178 29.9185 39.7178C29.6818 39.7178 29.49 39.9097 29.49 40.1464V40.1754C29.49 40.4121 29.6818 40.6039 29.9185 40.6039C30.1552 40.6039 30.3471 40.4121 30.3471 40.1754V40.1464ZM30.3471 44.8069C30.3471 44.5702 30.1552 44.3784 29.9185 44.3784C29.6818 44.3784 29.49 44.5702 29.49 44.8069V44.8648C29.49 45.1015 29.6818 45.2934 29.9185 45.2934C30.1552 45.2934 30.3471 45.1015 30.3471 44.8648V44.8069ZM30.3471 49.4964C30.3471 49.2597 30.1552 49.0678 29.9185 49.0678C29.6818 49.0678 29.49 49.2597 29.49 49.4964V49.5543C29.49 49.791 29.6818 49.9829 29.9185 49.9829C30.1552 49.9829 30.3471 49.791 30.3471 49.5543V49.4964ZM30.3471 54.1858C30.3471 53.9492 30.1552 53.7573 29.9185 53.7573C29.6818 53.7573 29.49 53.9492 29.49 54.1858V54.2437C29.49 54.4804 29.6818 54.6723 29.9185 54.6723C30.1552 54.6723 30.3471 54.4804 30.3471 54.2437V54.1858ZM30.3471 58.8753C30.3471 58.6386 30.1552 58.4467 29.9185 58.4467C29.6818 58.4467 29.49 58.6386 29.49 58.8753V58.9043C29.49 59.141 29.6818 59.3328 29.9185 59.3328C30.1552 59.3328 30.3471 59.141 30.3471 58.9043V58.8753ZM59.3231 29.9282C59.3231 30.1649 59.1312 30.3568 58.8945 30.3568H58.8686C58.6319 30.3568 58.44 30.1649 58.44 29.9282C58.44 29.6915 58.6319 29.4997 58.8686 29.4997H58.8945C59.1312 29.4997 59.3231 29.6915 59.3231 29.9282ZM55.1484 29.9282C55.1484 30.1649 54.9565 30.3568 54.7198 30.3568H54.6679C54.4312 30.3568 54.2394 30.1649 54.2394 29.9282C54.2394 29.6915 54.4312 29.4997 54.6679 29.4997H54.7198C54.9565 29.4997 55.1484 29.6915 55.1484 29.9282ZM50.9477 29.9282C50.9477 30.1649 50.7558 30.3568 50.5191 30.3568H50.4673C50.2306 30.3568 50.0387 30.1649 50.0387 29.9282C50.0387 29.6915 50.2306 29.4997 50.4673 29.4997H50.5191C50.7558 29.4997 50.9477 29.6915 50.9477 29.9282ZM46.747 29.9282C46.747 30.1649 46.5552 30.3568 46.3185 30.3568H46.2666C46.0299 30.3568 45.838 30.1649 45.838 29.9282C45.838 29.6915 46.0299 29.4997 46.2666 29.4997H46.3185C46.5552 29.4997 46.747 29.6915 46.747 29.9282ZM42.5464 29.9282C42.5464 30.1649 42.3545 30.3568 42.1178 30.3568H42.0659C41.8292 30.3568 41.6374 30.1649 41.6374 29.9282C41.6374 29.6915 41.8292 29.4997 42.0659 29.4997H42.1178C42.3545 29.4997 42.5464 29.6915 42.5464 29.9282ZM38.3457 29.9282C38.3457 30.1649 38.1538 30.3568 37.9171 30.3568H37.8912C37.6545 30.3568 37.4626 30.1649 37.4626 29.9282C37.4626 29.6915 37.6545 29.4997 37.8912 29.4997H37.9171C38.1538 29.4997 38.3457 29.6915 38.3457 29.9282ZM22.1292 30.3568C22.3659 30.3568 22.5578 30.1649 22.5578 29.9282C22.5578 29.6915 22.3659 29.4997 22.1292 29.4997H22.103C21.8663 29.4997 21.6745 29.6915 21.6745 29.9282C21.6745 30.1649 21.8663 30.3568 22.103 30.3568H22.1292ZM17.918 30.3568C18.1547 30.3568 18.3465 30.1649 18.3465 29.9282C18.3465 29.6915 18.1547 29.4997 17.918 29.4997H17.8657C17.629 29.4997 17.4371 29.6915 17.4371 29.9282C17.4371 30.1649 17.629 30.3568 17.8657 30.3568H17.918ZM13.6806 30.3568C13.9173 30.3568 14.1092 30.1649 14.1092 29.9282C14.1092 29.6915 13.9173 29.4997 13.6806 29.4997H13.6283C13.3916 29.4997 13.1997 29.6915 13.1997 29.9282C13.1997 30.1649 13.3916 30.3568 13.6283 30.3568H13.6806ZM9.4432 30.3568C9.67989 30.3568 9.87177 30.1649 9.87177 29.9282C9.87177 29.6915 9.67989 29.4997 9.4432 29.4997H9.39089C9.15419 29.4997 8.96231 29.6915 8.96231 29.9282C8.96231 30.1649 9.15419 30.3568 9.39089 30.3568H9.4432ZM5.20581 30.3568C5.44251 30.3568 5.63439 30.1649 5.63439 29.9282C5.63439 29.6915 5.44251 29.4997 5.20581 29.4997H5.1535C4.91681 29.4997 4.72493 29.6915 4.72493 29.9282C4.72493 30.1649 4.91681 30.3568 5.1535 30.3568H5.20581ZM0.968431 30.3568C1.20513 30.3568 1.397 30.1649 1.397 29.9282C1.397 29.6915 1.20513 29.4997 0.968431 29.4997H0.942273C0.705579 29.4997 0.513702 29.6915 0.513702 29.9282C0.513702 30.1649 0.705579 30.3568 0.942273 30.3568H0.968431Z" fill="#55555E"/>
<path fill-rule="evenodd" clip-rule="evenodd" d="M29.8897 0.523926H29.947C30.1837 0.524152 30.3754 0.716213 30.3751 0.952906C30.3749 1.1896 30.1828 1.38129 29.9461 1.38107H29.8905C29.6538 1.38129 29.4617 1.1896 29.4615 0.952906C29.4613 0.716213 29.653 0.524152 29.8897 0.523926ZM25.8389 1.23443C25.8755 1.46829 25.7155 1.68747 25.4816 1.72399L25.4268 1.73261C25.193 1.76958 24.9735 1.61003 24.9365 1.37624C24.8996 1.14246 25.0591 0.922959 25.2929 0.885985L25.3494 0.877108C25.5832 0.84059 25.8024 1.00057 25.8389 1.23443ZM33.9977 1.23443C34.0342 1.00057 34.2534 0.84059 34.4873 0.877108L34.5438 0.885985C34.7775 0.92296 34.9371 1.14246 34.9001 1.37624C34.8631 1.61003 34.6436 1.76958 34.4099 1.73261L34.355 1.72399C34.1212 1.68747 33.9612 1.46829 33.9977 1.23443ZM38.4337 2.22168C38.5066 1.99648 38.7483 1.87301 38.9735 1.94589L39.0277 1.96352C39.2528 2.03684 39.3758 2.27872 39.3025 2.50377C39.2291 2.72882 38.9873 2.85182 38.7622 2.7785L38.7095 2.76139C38.4843 2.68851 38.3609 2.44687 38.4337 2.22168ZM21.4029 2.22168C21.4758 2.44687 21.3523 2.68851 21.1271 2.76139L21.0744 2.7785C20.8494 2.85182 20.6075 2.72882 20.5342 2.50377C20.4609 2.27872 20.5839 2.03684 20.8089 1.96352L20.8632 1.94589C21.0884 1.87301 21.33 1.99649 21.4029 2.22168ZM42.6584 3.89539C42.7658 3.68448 43.0239 3.60058 43.2348 3.708L43.2855 3.73392C43.4962 3.84175 43.5796 4.09997 43.4718 4.31068C43.364 4.52138 43.1057 4.60477 42.895 4.49694L42.8458 4.47179C42.6349 4.36436 42.551 4.1063 42.6584 3.89539ZM17.1783 3.89539C17.2857 4.1063 17.2018 4.36436 16.9909 4.47179L16.9416 4.49694C16.7309 4.60477 16.4727 4.52138 16.3648 4.31068C16.257 4.09997 16.3404 3.84175 16.5511 3.73392L16.6019 3.708C16.8128 3.60058 17.0708 3.68448 17.1783 3.89539ZM13.269 6.21171C13.4081 6.40322 13.3656 6.67123 13.1741 6.81033L13.1294 6.84287C12.9382 6.98233 12.6701 6.94036 12.5306 6.74912C12.3912 6.55788 12.4331 6.28979 12.6244 6.15032L12.6704 6.1168C12.8619 5.97771 13.1299 6.0202 13.269 6.21171ZM46.5676 6.21171C46.7067 6.0202 46.9747 5.97771 47.1662 6.1168L47.2123 6.15032C47.4035 6.28979 47.4455 6.55788 47.306 6.74912C47.1666 6.94036 46.8985 6.98233 46.7072 6.84287L46.6625 6.81033C46.471 6.67123 46.4285 6.40322 46.5676 6.21171ZM9.7691 9.10984C9.9363 9.27737 9.93604 9.54873 9.76851 9.71593L9.72939 9.75505C9.56219 9.92258 9.29083 9.92284 9.1233 9.75564C8.95577 9.58843 8.95551 9.31708 9.12272 9.14955L9.16301 9.10926C9.33053 8.94205 9.60189 8.94231 9.7691 9.10984ZM50.0675 9.10984C50.2348 8.94231 50.5061 8.94205 50.6736 9.10926L50.7139 9.14955C50.8811 9.31708 50.8809 9.58843 50.7133 9.75564C50.5458 9.92284 50.2745 9.92258 50.1073 9.75505L50.0681 9.71593C49.9006 9.54873 49.9003 9.27737 50.0675 9.10984ZM6.76258 12.5172C6.95382 12.6566 6.99579 12.9247 6.85633 13.116L6.82378 13.1607C6.68469 13.3522 6.41668 13.3947 6.22517 13.2556C6.03366 13.1165 5.99117 12.8485 6.13026 12.657L6.16378 12.6109C6.30324 12.4197 6.57133 12.3777 6.76258 12.5172ZM53.0741 12.5172C53.2653 12.3777 53.5334 12.4197 53.6729 12.6109L53.7064 12.657C53.8455 12.8485 53.803 13.1165 53.6115 13.2556C53.42 13.3947 53.152 13.3522 53.0129 13.1607L52.9803 13.116C52.8409 12.9247 52.8828 12.6566 53.0741 12.5172ZM55.5125 16.3514C55.7232 16.2435 55.9814 16.3269 56.0893 16.5376L56.1152 16.5884C56.2226 16.7993 56.1387 17.0574 55.9278 17.1648C55.7169 17.2722 55.4588 17.1883 55.3514 16.9774L55.3262 16.9281C55.2184 16.7174 55.3018 16.4592 55.5125 16.3514ZM4.32414 16.3514C4.53484 16.4592 4.61823 16.7174 4.5104 16.9281L4.48524 16.9774C4.37782 17.1883 4.11976 17.2722 3.90885 17.1648C3.69793 17.0574 3.61404 16.7993 3.72146 16.5884L3.74737 16.5376C3.85521 16.3269 4.11343 16.2436 4.32414 16.3514ZM2.51723 20.5207C2.74228 20.5941 2.86528 20.8359 2.79196 21.061L2.77485 21.1137C2.70197 21.3389 2.46033 21.4623 2.23514 21.3894C2.00994 21.3166 1.88647 21.0749 1.95935 20.8497L1.97698 20.7955C2.0503 20.5704 2.29218 20.4474 2.51723 20.5207ZM57.3194 20.5207C57.5445 20.4474 57.7863 20.5704 57.8597 20.7955L57.8773 20.8497C57.9502 21.0749 57.8267 21.3166 57.6015 21.3894C57.3763 21.4623 57.1347 21.3389 57.0618 21.1137L57.0447 21.061C56.9714 20.8359 57.0944 20.5941 57.3194 20.5207ZM1.3897 24.9231C1.62349 24.96 1.78304 25.1795 1.74606 25.4133L1.73745 25.4682C1.70093 25.702 1.48174 25.862 1.24788 25.8255C1.01402 25.789 0.854048 25.5698 0.890567 25.3359L0.899443 25.2794C0.936418 25.0456 1.15591 24.8861 1.3897 24.9231ZM58.4469 24.9231C58.6807 24.8861 58.9002 25.0456 58.9372 25.2794L58.9461 25.3359C58.9826 25.5698 58.8226 25.789 58.5888 25.8255C58.3549 25.862 58.1357 25.702 58.0992 25.4682L58.0906 25.4133C58.0536 25.1795 58.2132 24.96 58.4469 24.9231ZM0.966364 29.4481C1.20306 29.4483 1.39475 29.6403 1.39453 29.877V29.9327C1.39475 30.1694 1.20306 30.3614 0.966364 30.3617C0.729671 30.3619 0.53761 30.1702 0.537384 29.9335V29.8762C0.53761 29.6395 0.729671 29.4478 0.966364 29.4481ZM58.8703 29.4481C59.107 29.4478 59.299 29.6395 59.2993 29.8762V29.9335C59.299 30.1702 59.107 30.3619 58.8703 30.3617C58.6336 30.3614 58.4419 30.1694 58.4421 29.9327V29.877C58.4419 29.6403 58.6336 29.4483 58.8703 29.4481ZM1.24788 33.9842C1.48174 33.9477 1.70093 34.1077 1.73745 34.3416L1.74606 34.3964C1.78304 34.6302 1.62349 34.8497 1.3897 34.8867C1.15591 34.9236 0.936418 34.7641 0.899443 34.5303L0.890566 34.4738C0.854048 34.2399 1.01402 34.0208 1.24788 33.9842ZM58.5888 33.9842C58.8226 34.0208 58.9826 34.2399 58.9461 34.4738L58.9372 34.5303C58.9002 34.7641 58.6807 34.9236 58.4469 34.8867C58.2132 34.8497 58.0536 34.6302 58.0906 34.3964L58.0992 34.3416C58.1357 34.1077 58.3549 33.9477 58.5888 33.9842ZM2.23514 38.4203C2.46033 38.3474 2.70197 38.4709 2.77485 38.6961L2.79196 38.7487C2.86528 38.9738 2.74228 39.2157 2.51723 39.289C2.29218 39.3623 2.0503 39.2393 1.97698 39.0143L1.95935 38.96C1.88647 38.7348 2.00994 38.4932 2.23514 38.4203ZM57.6015 38.4203C57.8267 38.4932 57.9502 38.7348 57.8773 38.96L57.8597 39.0143C57.7863 39.2393 57.5445 39.3623 57.3194 39.289C57.0944 39.2157 56.9714 38.9738 57.0447 38.7487L57.0618 38.6961C57.1347 38.4709 57.3763 38.3474 57.6015 38.4203ZM3.90885 42.6449C4.11976 42.5375 4.37782 42.6214 4.48524 42.8323L4.5104 42.8816C4.61823 43.0923 4.53484 43.3505 4.32414 43.4583C4.11343 43.5662 3.85521 43.4828 3.74738 43.2721L3.72146 43.2213C3.61404 43.0104 3.69794 42.7523 3.90885 42.6449ZM55.9278 42.6449C56.1387 42.7523 56.2226 43.0104 56.1152 43.2213L56.0893 43.2721C55.9814 43.4828 55.7232 43.5662 55.5125 43.4583C55.3018 43.3505 55.2184 43.0923 55.3262 42.8816L55.3514 42.8323C55.4588 42.6214 55.7169 42.5375 55.9278 42.6449ZM6.22517 46.5541C6.41668 46.4151 6.68469 46.4575 6.82378 46.6491L6.85633 46.6938C6.99579 46.885 6.95382 47.1531 6.76258 47.2926C6.57133 47.432 6.30324 47.3901 6.16378 47.1988L6.13026 47.1528C5.99117 46.9613 6.03366 46.6932 6.22517 46.5541ZM53.6115 46.5541C53.803 46.6932 53.8455 46.9613 53.7064 47.1528L53.6729 47.1988C53.5334 47.3901 53.2653 47.432 53.0741 47.2926C52.8828 47.1531 52.8409 46.885 52.9803 46.6938L53.0129 46.6491C53.152 46.4575 53.42 46.4151 53.6115 46.5541ZM9.1233 50.0541C9.29083 49.8869 9.56219 49.8871 9.72939 50.0547L9.76851 50.0938C9.93604 50.261 9.9363 50.5324 9.7691 50.6999C9.60189 50.8674 9.33053 50.8677 9.16301 50.7005L9.12272 50.6602C8.95551 50.4927 8.95577 50.2213 9.1233 50.0541ZM50.7133 50.0541C50.8809 50.2213 50.8811 50.4927 50.7139 50.6602L50.6736 50.7005C50.5061 50.8677 50.2348 50.8674 50.0675 50.6999C49.9003 50.5324 49.9006 50.261 50.0681 50.0938L50.1073 50.0547C50.2745 49.8871 50.5458 49.8869 50.7133 50.0541ZM12.5306 53.0606C12.6701 52.8694 12.9382 52.8274 13.1294 52.9669L13.1741 52.9994C13.3656 53.1385 13.4081 53.4065 13.269 53.598C13.1299 53.7895 12.8619 53.832 12.6704 53.6929L12.6244 53.6594C12.4331 53.5199 12.3912 53.2519 12.5306 53.0606ZM47.306 53.0606C47.4455 53.2519 47.4035 53.5199 47.2123 53.6594L47.1662 53.6929C46.9747 53.832 46.7067 53.7895 46.5676 53.598C46.4285 53.4065 46.471 53.1385 46.6625 52.9994L46.7072 52.9669C46.8985 52.8274 47.1666 52.8694 47.306 53.0606ZM16.3648 55.4991C16.4727 55.2883 16.7309 55.205 16.9416 55.3128L16.9909 55.3379C17.2018 55.4454 17.2857 55.7034 17.1783 55.9143C17.0708 56.1253 16.8128 56.2091 16.6019 56.1017L16.5511 56.0758C16.3404 55.968 16.257 55.7098 16.3648 55.4991ZM43.4718 55.4991C43.5796 55.7098 43.4962 55.968 43.2855 56.0758L43.2348 56.1017C43.0239 56.2091 42.7658 56.1252 42.6584 55.9143C42.551 55.7034 42.6349 55.4454 42.8458 55.3379L42.895 55.3128C43.1057 55.205 43.364 55.2883 43.4718 55.4991ZM20.5342 57.306C20.6075 57.0809 20.8494 56.9579 21.0744 57.0312L21.1271 57.0483C21.3523 57.1212 21.4758 57.3629 21.4029 57.588C21.33 57.8132 21.0884 57.9367 20.8632 57.8638L20.8089 57.8462C20.5839 57.7729 20.4609 57.531 20.5342 57.306ZM39.3025 57.306C39.3758 57.531 39.2528 57.7729 39.0277 57.8462L38.9735 57.8638C38.7483 57.9367 38.5066 57.8132 38.4337 57.588C38.3609 57.3629 38.4843 57.1212 38.7095 57.0483L38.7622 57.0312C38.9873 56.9579 39.2291 57.0809 39.3025 57.306ZM24.9365 58.4335C24.9735 58.1997 25.193 58.0401 25.4268 58.0771L25.4816 58.0857C25.7155 58.1223 25.8755 58.3414 25.8389 58.5753C25.8024 58.8092 25.5832 58.9691 25.3494 58.9326L25.2929 58.9237C25.0591 58.8868 24.8996 58.6673 24.9365 58.4335ZM34.9001 58.4335C34.9371 58.6673 34.7775 58.8868 34.5438 58.9237L34.4873 58.9326C34.2534 58.9691 34.0342 58.8092 33.9977 58.5753C33.9612 58.3414 34.1212 58.1223 34.355 58.0857L34.4099 58.0771C34.6436 58.0401 34.8631 58.1997 34.9001 58.4335ZM29.4615 58.8568C29.4617 58.6201 29.6538 58.4284 29.8905 58.4287H29.9461C30.1828 58.4284 30.3749 58.6201 30.3751 58.8568C30.3754 59.0935 30.1837 59.2856 29.947 59.2858H29.8897C29.653 59.2856 29.4613 59.0935 29.4615 58.8568Z" fill="white"/>
<path d="M30.8708 58.8572C30.8708 59.3832 30.4444 59.8096 29.9184 59.8096C29.3925 59.8096 28.9661 59.3832 28.9661 58.8572C28.9661 58.3312 29.3925 57.9048 29.9184 57.9048C30.4444 57.9048 30.8708 58.3312 30.8708 58.8572Z" fill="#6966FF"/>
<path d="M58.8707 30.8574C58.3447 30.8574 57.9183 30.431 57.9183 29.905C57.9183 29.3791 58.3447 28.9527 58.8707 28.9527C59.3966 28.9527 59.823 29.3791 59.823 29.905C59.823 30.431 59.3966 30.8574 58.8707 30.8574Z" fill="#6966FF"/>
<path d="M30.8708 0.952404C30.8708 1.47839 30.4444 1.90479 29.9184 1.90479C29.3925 1.90479 28.9661 1.47839 28.9661 0.952404C28.9661 0.426419 29.3925 2.31166e-05 29.9184 2.31626e-05C30.4444 2.32085e-05 30.8708 0.426419 30.8708 0.952404Z" fill="#6966FF"/>
<path d="M0.966053 30.8574C0.440068 30.8574 0.0136719 30.431 0.013672 29.905C0.0136721 29.3791 0.440068 28.9527 0.966053 28.9527C1.49204 28.9527 1.91843 29.3791 1.91843 29.905C1.91843 30.431 1.49204 30.8574 0.966053 30.8574Z" fill="#6966FF"/>
<defs>
<linearGradient id="paint0_linear_63_559" x1="40.8986" y1="45.0528" x2="28.0996" y2="27.4669" gradientUnits="userSpaceOnUse">
<stop stop-color="#6966FF"/>
<stop offset="1" stop-color="#6966FF" stop-opacity="0.36"/>
</linearGradient>
</defs>
</svg>
